<svg xmlns="http://www.w3.org/2000/svg" viewBox="0 0 28 25" width="28" height="25">
	<style>
		.shp0 { fill: none;stroke: #ffffff;stroke-width: 1.5 }
	</style>
	<path class="shp0" d="M24.89 3.44C23.55 1.98 21.71 1.18 19.71 1.18C18.22 1.18 16.85 1.66 15.64 2.59C15.04 3.06 14.49 3.63 14 4.3C13.51 3.63 12.96 3.06 12.36 2.59C11.15 1.66 9.78 1.18 8.29 1.18C6.29 1.18 4.45 1.98 3.11 3.44C1.79 4.87 1.06 6.84 1.06 8.96C1.06 11.15 1.88 13.15 3.63 15.27C5.19 17.16 7.45 19.08 10.05 21.3C10.94 22.06 11.95 22.92 13 23.83C13.28 24.07 13.63 24.21 14 24.21C14.37 24.21 14.72 24.07 15 23.83C16.05 22.92 17.06 22.06 17.95 21.3C20.55 19.08 22.81 17.16 24.37 15.27C26.12 13.15 26.94 11.15 26.94 8.96C26.94 6.84 26.21 4.87 24.89 3.44L24.89 3.44Z"/>
</svg>